<?xml version="1.0" encoding="utf-8"?>
<!-- Generator: Adobe Illustrator 27.6.1, SVG Export Plug-In . SVG Version: 6.00 Build 0)  -->
<svg version="1.1" xmlns="http://www.w3.org/2000/svg" xmlns:xlink="http://www.w3.org/1999/xlink" x="0px" y="0px"
	 viewBox="0 0 1920 1080" style="enable-background:new 0 0 1920 1080;" xml:space="preserve">
<style type="text/css">
	.st0{display:none;}
	.st1{fill:none;stroke:#000000;stroke-width:58;stroke-miterlimit:10;}
	.st2{fill:none;stroke:#000000;stroke-width:19;stroke-miterlimit:10;}
</style>
<g id="Layer_1" class="st0">
	
		<image style="display:inline;overflow:visible;" width="144" height="307" xlink:href="16E5A754.jpg"  transform="matrix(9.2402 0 0 9.2402 259.1031 40.6731)">
	</image>
</g>
<g id="Layer_2">
	<path d="M929.1,203.8c4.8-1,11.7-1.7,18.4,1.4c21.9,9.9,23.7,51.2,24.3,65.1c1.5,33.6-7.5,51.1,5.3,65.9c1.6,1.8,6.1,6.9,13.4,9
		c16.8,4.8,32.7-10.4,42.5-16.4c37.9-23,116.1,11.9,156,62.5c29.3,37.2,43.8,90.6,30.7,99.4c-12.6,8.5-49.9-24.9-74.9-49.6
		c-46.4-37.9-61.9-42.2-67-38c-2.6,2.1-2.8,6.8-2.9,8.6c-0.7,13.6,13,24.5,16.1,27.2c27.7,24.3,27.5,109,27.4,129.8
		c-0.1,45.3-0.2,83.7-22.7,122.9c-11.4,20-25.5,34.6-21.1,53.8c4,17.2,18,17.1,32.2,43.8c2.2,4.1,20.7,39.8,6.9,55.5
		c-3.2,3.7-7.5,5.3-10.6,6.2c-6.5,2-16.5,4.4-28.9,4.9c-15.3,0.6-34.7,1.4-44.4-10.2c-7-8.4-0.7-13.6-8.1-28.9
		c-1.8-3.7-12-23.6-30.9-26.5c-2-0.3-8.7-1.3-16.1,1.5c-8.4,3.2-8.9,7.9-16.6,12.2c-12,6.6-25.5,3.4-26.4,3.2
		c-12.4-3.2-13-11.3-23.7-12.4c-12-1.2-21.1,8.1-21.6,8.7c-9.9,10.6-7.2,24.6-6.9,25.9c0,0-20,59.8-67,45.5c0,0-62.2-12.8-31.1-65.6
		c0,0,50.6-55.4,23.2-70.2c0,0-136.7-123-15.3-314.4c0,0,9.9-29.9-38.8-1.5c-9.4,7-24.6,18.4-43.2,32.9
		c-36.2,28.3-47.6,37.9-54.7,34c-10.2-5.6-3.9-34.9-2.6-40.6c4.6-21.2,15.2-39.9,31.6-58.3c20-22.3,60.3-66.7,114.4-61.1
		c10.4,1.1,31.6,5.2,55.3,25.5c9.5,3.4,15.9,2.5,20.1,1c20.6-7.3,31.4-45.1,23.8-94.4c-5.2-23.1,1.3-44.5,15.9-53.7
		C914.4,206.7,920.2,203.9,929.1,203.8z"/>
	<circle class="st1" cx="935.7" cy="540" r="481.8"/>
	<circle class="st2" cx="935.7" cy="544" r="369.2"/>
</g>
</svg>
